<?xml version="1.0" standalone="no"?><!DOCTYPE svg PUBLIC "-//W3C//DTD SVG 1.1//EN" "http://www.w3.org/Graphics/SVG/1.1/DTD/svg11.dtd"><svg class="icon" width="200px" height="200.00px" viewBox="0 0 1024 1024" version="1.1" xmlns="http://www.w3.org/2000/svg"><path fill="#3B3B3B" d="M1014.390874 968.303274l-264.399402-260.238153a418.045544 418.045544 0 0 0 111.713549-283.925266A427.648428 427.648428 0 0 0 430.855631 0.012484 427.648428 427.648428 0 0 0 0.006242 424.139855a427.648428 427.648428 0 0 0 430.849389 423.807274 432.44987 432.44987 0 0 0 271.121421-96.028839l265.359691 261.198442a33.610094 33.610094 0 0 0 47.054131 0 32.009613 32.009613 0 0 0 0-44.813458z m-583.535243-185.655755a361.388529 361.388529 0 0 1-364.58949-358.507664A361.708626 361.708626 0 0 1 430.855631 64.03171a361.708626 361.708626 0 0 1 364.589491 360.108145 361.388529 361.388529 0 0 1-364.589491 358.507664z" /></svg>