<?xml version="1.0" standalone="no"?><!DOCTYPE svg PUBLIC "-//W3C//DTD SVG 1.1//EN" "http://www.w3.org/Graphics/SVG/1.1/DTD/svg11.dtd"><svg class="icon" width="200px" height="200.00px" viewBox="0 0 1024 1024" version="1.1" xmlns="http://www.w3.org/2000/svg"><path fill="#3B3B3B" d="M672 896a32 32 0 0 0 32-32V480a32 32 0 0 0-64 0v384a32 32 0 0 0 32 32zM352 896a32 32 0 0 0 32-32V480a32 32 0 0 0-64 0v384a32 32 0 0 0 32 32z m160 0a32 32 0 0 0 32-32V480a32 32 0 0 0-64 0v384a32 32 0 0 0 32 32zM864 128h-192V64a64 64 0 0 0-64-64h-192a64 64 0 0 0-64 64v64H160a64 64 0 0 0-64 64v64a64 64 0 0 0 64 64v576a128 128 0 0 0 128 128h448a128 128 0 0 0 128-128V320a64 64 0 0 0 64-64V192a64 64 0 0 0-64-64zM416 96a32 32 0 0 1 32-32h128a32 32 0 0 1 32 32v32h-192z m384 800a64 64 0 0 1-64 64H288a64 64 0 0 1-64-64V320h576z m32-640H192a32 32 0 0 1 0-64h640a32 32 0 0 1 0 64z" /></svg>