<?xml version="1.0" standalone="no"?><!DOCTYPE svg PUBLIC "-//W3C//DTD SVG 1.1//EN" "http://www.w3.org/Graphics/SVG/1.1/DTD/svg11.dtd"><svg class="icon" width="200px" height="200.00px" viewBox="0 0 1024 1024" version="1.1" xmlns="http://www.w3.org/2000/svg"><path fill="#3B3B3B" d="M512 1024C407.444471 1024 103.192838 628.571982 103.192838 408.807162a408.807162 408.807162 0 1 1 817.614324 0c0 219.76482-304.499395 615.192838-408.807162 615.192838z m1.734333-74.328575zM512 74.328575A334.726349 334.726349 0 0 0 177.521413 408.807162c0 184.83039 269.812727 520.300024 334.478587 540.368739C576.418098 930.345996 846.478587 594.628599 846.478587 408.807162A334.726349 334.726349 0 0 0 512 74.328575zM512 507.911928a140.481007 140.481007 0 1 1 140.233245-140.481006 140.481007 140.481007 0 0 1-140.233245 140.481006z m0-206.385676a66.152432 66.152432 0 1 0 65.90467 65.90467 66.152432 66.152432 0 0 0-65.90467-65.90467z" /></svg>