<?xml version="1.0" standalone="no"?><!DOCTYPE svg PUBLIC "-//W3C//DTD SVG 1.1//EN" "http://www.w3.org/Graphics/SVG/1.1/DTD/svg11.dtd"><svg class="icon" width="200px" height="200.00px" viewBox="0 0 1024 1024" version="1.1" xmlns="http://www.w3.org/2000/svg"><path fill="#3B3B3B" d="M512 0A384 384 0 0 0 128 384c0 160 320 640 384 640s384-480 384-640A384 384 0 0 0 512 0z m0 928C458.88 928 192 517.76 192 384a320 320 0 0 1 640 0c0 132.16-267.52 544-320 544z m0-704a160 160 0 1 0 160 160 160 160 0 0 0-160-160z m0 256a96 96 0 1 1 96-96 96 96 0 0 1-96 96z" /></svg>