<?xml version="1.0" standalone="no"?><!DOCTYPE svg PUBLIC "-//W3C//DTD SVG 1.1//EN" "http://www.w3.org/Graphics/SVG/1.1/DTD/svg11.dtd"><svg class="icon" width="200px" height="200.00px" viewBox="0 0 1024 1024" version="1.1" xmlns="http://www.w3.org/2000/svg"><path fill="#3B3B3B" d="M842.91355 317.340831L552.124421 17.594502a58.221806 58.221806 0 0 0-83.174008 0L178.161285 317.340831a58.221806 58.221806 0 0 0-15.995002 51.503905v524.316151A127.960012 127.960012 0 0 0 290.126296 1023.6801h444.661043a127.960012 127.960012 0 0 0 127.960012-130.839113V401.794439c-0.6398-38.068104 3.199-61.100906-19.833801-84.453608zM801.966346 895.720087a63.980006 63.980006 0 0 1-63.980007 63.980007H290.126296a66.219306 66.219306 0 0 1-63.980007-66.859107V383.880037a57.901906 57.901906 0 0 1 14.395502-45.745704l249.202124-255.920025a28.791003 28.791003 0 0 1 41.587004 0l249.202124 255.920025A58.541706 58.541706 0 0 1 801.966346 383.880037zM512.136917 270.635426a131.159013 131.159013 0 0 0 0 261.998126 131.159013 131.159013 0 0 0 0-261.998126z m0 196.41862a63.980006 63.980006 0 1 1 63.980006-63.980007 63.980006 63.980006 0 0 1-63.980006 63.980007z" /></svg>