<?xml version="1.0" standalone="no"?><!DOCTYPE svg PUBLIC "-//W3C//DTD SVG 1.1//EN" "http://www.w3.org/Graphics/SVG/1.1/DTD/svg11.dtd"><svg class="icon" width="20px" height="18.5px" viewBox="0 0 1102 1024" version="1.1" xmlns="http://www.w3.org/2000/svg"><path fill="#3B3B3B" d="M630.153846 945.230769H39.384615a39.384615 39.384615 0 0 0 0 78.769231h590.769231a39.384615 39.384615 0 0 0 0-78.769231zM39.384615 78.769231h1024a39.384615 39.384615 0 0 0 0-78.769231H39.384615a39.384615 39.384615 0 0 0 0 78.769231z m1024 551.384615H39.384615a39.384615 39.384615 0 0 0 0 78.769231h1024a39.384615 39.384615 0 0 0 0-78.769231z m0-315.076923H39.384615a39.384615 39.384615 0 0 0 0 78.769231h1024a39.384615 39.384615 0 0 0 0-78.769231z" /></svg>