<?xml version="1.0" standalone="no"?><!DOCTYPE svg PUBLIC "-//W3C//DTD SVG 1.1//EN" "http://www.w3.org/Graphics/SVG/1.1/DTD/svg11.dtd"><svg class="icon" width="20px" height="18px" viewBox="0 0 1092 1024" version="1.1" xmlns="http://www.w3.org/2000/svg"><path fill="#3B3B3B" d="M341.333333 273.066667L254.976 0H34.133333a34.133333 34.133333 0 0 0 0 68.266667h170.666667l68.266667 204.8 68.266666 409.6a136.533333 136.533333 0 0 0 136.533334 136.533333h375.466666a136.533333 136.533333 0 0 0 136.533334-136.533333l102.4-409.6z m580.266667 409.6a68.266667 68.266667 0 0 1-68.266667 68.266666H477.866667a68.266667 68.266667 0 0 1-68.266667-68.266666l-57.002667-341.333334H1006.933333z m-443.733333 204.8a68.266667 68.266667 0 1 0 68.266666 68.266666 68.266667 68.266667 0 0 0-68.266666-68.266666z m341.333333 0a68.266667 68.266667 0 1 0 68.266667 68.266666 68.266667 68.266667 0 0 0-68.266667-68.266666z" /></svg>