<?xml version="1.0" standalone="no"?><!DOCTYPE svg PUBLIC "-//W3C//DTD SVG 1.1//EN" "http://www.w3.org/Graphics/SVG/1.1/DTD/svg11.dtd"><svg class="icon" width="20px" height="20px" viewBox="0 0 1024 1024" version="1.1" xmlns="http://www.w3.org/2000/svg"><path fill="#3B3B3B" d="M392.874667 704.512l31.744-157.013333-59.050667-34.133334-45.056 316.757334 251.904-197.290667-59.050667-34.133333zM546.133333 528.725333a51.2 51.2 0 1 0-51.2 51.2 51.2 51.2 0 0 0 51.2-51.2zM512 0a512 512 0 1 0 512 512A512 512 0 0 0 512 0z m0 955.733333a443.733333 443.733333 0 1 1 443.733333-443.733333 443.733333 443.733333 0 0 1-443.733333 443.733333z m-36.181333-496.981333l120.149333-105.813333-31.402667 157.013333 59.050667 34.133333 44.714667-316.757333-251.562667 197.290667z" /></svg>