<?xml version="1.0" standalone="no"?><!DOCTYPE svg PUBLIC "-//W3C//DTD SVG 1.1//EN" "http://www.w3.org/Graphics/SVG/1.1/DTD/svg11.dtd"><svg class="icon" width="200px" height="167.46px" viewBox="0 0 1223 1024" version="1.1" xmlns="http://www.w3.org/2000/svg"><path fill="#FFFFFF" d="M611.670915 1024C504.28737 1023.70336 0 664.472769 0 304.648899A305.242178 305.242178 0 0 1 304.648899 0c151.286211 0 254.220162 124.588644 307.022016 210.020857C664.17613 124.588644 767.110081 0 919.582851 0a304.945539 304.945539 0 0 1 303.46234 304.648899c0 359.82387-505.177289 719.054461-611.374276 719.351101z m1.779838-88.991889zM304.648899 88.991889A215.95365 215.95365 0 0 0 88.991889 304.648899C88.991889 617.603708 544.03708 919.582851 611.670915 934.711472c67.337196-15.128621 522.382387-317.107764 522.382387-630.062573A215.95365 215.95365 0 0 0 919.582851 88.991889c-166.414832 0-264.899189 230.488992-266.975667 232.862109a44.495944 44.495944 0 0 1-82.169177 0C569.548088 319.480881 470.173812 88.991889 304.648899 88.991889z" /></svg>