<?xml version="1.0" standalone="no"?><!DOCTYPE svg PUBLIC "-//W3C//DTD SVG 1.1//EN" "http://www.w3.org/Graphics/SVG/1.1/DTD/svg11.dtd"><svg class="icon" width="20px" height="20px" viewBox="0 0 1024 1024" version="1.1" xmlns="http://www.w3.org/2000/svg"><path fill="currentColor" d="M414.154352 828.308704a414.154352 414.154352 0 1 1 414.154352-414.154352 414.154352 414.154352 0 0 1-414.154352 414.154352z m0-750.654763a336.500411 336.500411 0 1 0 336.500411 336.500411A336.500411 336.500411 0 0 0 414.154352 77.653941zM985.169665 1023.996635a38.050431 38.050431 0 0 1-27.437726-11.389245L652.034258 706.909709a39.085817 39.085817 0 0 1 0-54.875451 38.568124 38.568124 0 0 1 54.875451 0L1012.60739 957.731939a38.568124 38.568124 0 0 1 0 54.875451 37.532738 37.532738 0 0 1-27.437725 11.389245z" /></svg>